<?xml version="1.0" standalone="no"?><!DOCTYPE svg PUBLIC "-//W3C//DTD SVG 1.1//EN" "http://www.w3.org/Graphics/SVG/1.1/DTD/svg11.dtd"><svg width="200" height="200" viewBox="0 0 200 200" version="1.1" xmlns="http://www.w3.org/2000/svg" xmlns:xlink="http://www.w3.org/1999/xlink"><defs><style type="text/css"><![CDATA[
@font-face { font-family: ifont; src: url(http://at.alicdn.com/t/font_1442373896_4754455.eot?#iefix) format(embedded-opentype), url(http://at.alicdn.com/t/font_1442373896_4754455.woff) format(woff), url(http://at.alicdn.com/t/font_1442373896_4754455.ttf) format(truetype), url(http://at.alicdn.com/t/font_1442373896_4754455.svg#ifont) format(svg); }

]]></style></defs><g class="transform-group"><g transform="scale(0.1953125, 0.1953125)"><path d="M896.729873 151.866826 127.53414 151.866826c-34.980699 0-63.694671 28.447912-63.694671 63.428611l0 596.314291c0 33.918507 28.275997 60.521398 64.022129 60.521398l768.273734 0c35.903721 0 64.022129-26.602891 64.022129-60.521398L960.157461 215.296461C960.158485 180.314739 931.711596 151.866826 896.729873 151.866826zM928.148443 811.610752c0 16.255219-13.754259 28.509311-32.012088 28.509311L127.862621 840.120063c-15.771195 0-32.011064-9.816576-32.011064-28.509311l0-419.657872 832.296887 0L928.148443 811.610752zM928.148443 359.941815 95.850533 359.941815 95.850533 215.296461c0-17.310248 14.365172-31.416524 31.682583-31.416524l769.195733 0c17.320481 0 31.41857 14.106276 31.41857 31.416524L928.14742 359.941815zM201.982736 228.753961c-23.367197 0-42.374086 19.006889-42.374086 42.35976S178.614515 313.472458 201.982736 313.472458c23.351847 0 42.358737-19.006889 42.358737-42.35976S225.334583 228.753961 201.982736 228.753961zM201.982736 281.468556c-5.720282 0-10.363022-4.649903-10.363022-10.354835 0-5.713119 4.64274-10.347672 10.363022-10.347672 5.704932 0 10.347672 4.634554 10.347672 10.347672C212.330408 276.818653 207.687668 281.468556 201.982736 281.468556zM304.550763 228.753961c-23.367197 0-42.374086 19.006889-42.374086 42.35976S281.182542 313.472458 304.550763 313.472458c23.351847 0 42.358737-19.006889 42.358737-42.35976S327.90261 228.753961 304.550763 228.753961zM304.550763 281.468556c-5.720282 0-10.363022-4.649903-10.363022-10.354835 0-5.713119 4.64274-10.347672 10.363022-10.347672 5.704932 0 10.347672 4.634554 10.347672 10.347672C314.898435 276.818653 310.255695 281.468556 304.550763 281.468556zM407.117766 228.753961c-23.367197 0-42.374086 19.006889-42.374086 42.35976S383.750569 313.472458 407.117766 313.472458c23.351847 0 42.35976-19.006889 42.35976-42.35976S430.470637 228.753961 407.117766 228.753961zM407.117766 281.468556c-5.720282 0-10.363022-4.649903-10.363022-10.354835 0-5.713119 4.64274-10.347672 10.363022-10.347672 5.704932 0 10.347672 4.634554 10.347672 10.347672C417.465438 276.818653 412.822698 281.468556 407.117766 281.468556z" fill="#272636"></path></g></g></svg>