<?xml version="1.0" standalone="no"?><!DOCTYPE svg PUBLIC "-//W3C//DTD SVG 1.1//EN" "http://www.w3.org/Graphics/SVG/1.1/DTD/svg11.dtd"><svg width="200" height="200" viewBox="0 0 200 200" version="1.1" xmlns="http://www.w3.org/2000/svg" xmlns:xlink="http://www.w3.org/1999/xlink"><defs><style type="text/css"><![CDATA[
@font-face { font-family: ifont; src: url(http://at.alicdn.com/t/font_1442373896_4754455.eot?#iefix) format(embedded-opentype), url(http://at.alicdn.com/t/font_1442373896_4754455.woff) format(woff), url(http://at.alicdn.com/t/font_1442373896_4754455.ttf) format(truetype), url(http://at.alicdn.com/t/font_1442373896_4754455.svg#ifont) format(svg); }

]]></style></defs><g class="transform-group"><g transform="scale(0.1953125, 0.1953125)"><path d="M976 64 48 64C21.488 64 0 85.488 0 112l0 800c0 26.512 21.488 48 48 48l928 0c26.512 0 48-21.488 48-48L1024 112C1024 85.488 1002.512 64 976 64zM384 112c26.512 0 48 21.488 48 48s-21.488 48-48 48-48-21.488-48-48S357.488 112 384 112zM240 112c26.512 0 48 21.488 48 48s-21.488 48-48 48-48-21.488-48-48S213.488 112 240 112zM96 112c26.512 0 48 21.488 48 48s-21.488 48-48 48-48-21.488-48-48S69.488 112 96 112zM976 912 48 912 48 256l928 0L976 912z" fill="#272636"></path></g></g></svg>